<svg xmlns="http://www.w3.org/2000/svg" width="600" height="600" viewBox="0 0 600 600" role="img" aria-label="Phalcon">
  <g transform="translate(10 10) scale(0.92896) translate(-49.49 -6.16)">
      <path fill="#acd2b4" stroke="#86f6da" stroke-width="2" stroke-opacity="0.5" stroke-linejoin="round" d="M249.75 391.53l60.83-4.81 11.59-9.15-3.38-5.78-39.59 5.78-29.45 13.96z"></path>
      <path fill="#2f3a3c" stroke="#86f6da" stroke-width="2" stroke-opacity="0.5" stroke-linejoin="round" d="M411.01 554.72v8.67l-19.8-8.19-2.41 4.33 18.35 9.15 7.72 18.77-18.35-15.4h-3.86l3.86 47.18-23.17-26.96-1.93-27.44 10.62-23.59 28.97 13.48z"></path>
      <path fill="#8fc19a" stroke="#86f6da" stroke-width="2" stroke-opacity="0.5" stroke-linejoin="round" d="M376.74 569.64v22.15L346.8 604.3l-18.35-32.73v-95.8l7.73-14.92 2.9 2.41 4.34 74.13 33.32 32.25z"></path>
      <path fill="#2f3a3c" stroke="#86f6da" stroke-width="2" stroke-opacity="0.5" stroke-linejoin="round" d="M447.22 473.37v9.14l-19.31-8.66-2.42 4.33 17.38 8.67 8.21 19.73-17.38-15.88h-3.86l3.38 46.69-25.11-28.88-.96-21.66 11.1-26.96 28.97 13.48z"></path>
      <path fill="#678a6f" stroke="#86f6da" stroke-width="2" stroke-opacity="0.5" stroke-linejoin="round" d="M411.01 489.73v17.81l-48.28 18.3-16.9-35.63-3.86-23.1 11.1-7.22 32.83-1.93 7.73 20.22 17.38 11.55z"></path>
      <path fill="#2f3a3c" stroke="#86f6da" stroke-width="2" stroke-opacity="0.5" stroke-linejoin="round" d="M346.8 409.34L299 396.83l-90.77 90.01v58.73l22.69 77.51v-40.92L285 450.74l61.8-41.4z"></path>
      <path fill="#2f3a3c" stroke="#86f6da" stroke-width="2" stroke-opacity="0.5" stroke-linejoin="round" d="M440.94 412.71c-3.79 3.15-22.78 18.87-56.97 47.18h-30.9l94.15-61.62h52.15c-31.16 7.7-50.64 12.52-58.43 14.44z"></path>
      <path fill="#79a281" stroke="#86f6da" stroke-width="2" stroke-opacity="0.5" stroke-linejoin="round" d="M599.31 395.38l-27.52 14.45-102.36-41.88-2.41-28.41 56.97 3.85 52.15 14.93 23.17 37.06z"></path>
      <path fill="#2f3a3c" stroke="#86f6da" stroke-width="2" stroke-opacity="0.5" stroke-linejoin="round" d="M566.48 393.94l-.96-1.44 10.14-7.71 14.48 8.19-.97 1.92-13.51-7.7-9.18 6.74z"></path>
      <path fill="#8fc19a" stroke="#86f6da" stroke-width="2" stroke-opacity="0.5" stroke-linejoin="round" d="M460.26 325.58v63.06l-42.01-15.88-82.08-41.88 14.49-32.74 109.6 27.44z"></path>
      <path fill="#7aa383" stroke="#86f6da" stroke-width="2" stroke-opacity="0.5" stroke-linejoin="round" d="M438.05 260.6l1.45-45.25 47.8 93.87-49.25-48.62z"></path>
      <path fill="#cce2d2" stroke="#86f6da" stroke-width="2" stroke-opacity="0.5" stroke-linejoin="round" d="M439.98 201.39L207.74 3.06l34.28 94.35 135.19 129.97 92.22 100.13-29.45-126.12z"></path>
      <path fill="#acd2b4" stroke="#86f6da" stroke-width="2" stroke-opacity="0.5" stroke-linejoin="round" d="M288.86 196.09l88.36 31.29L196.64 53.12l7.73 46.69 84.49 96.28z"></path>
      <path fill="#2f3a3c" stroke="#86f6da" stroke-width="2" stroke-opacity="0.5" stroke-linejoin="round" d="M181.19 229.79l76.29 75.09-81.12-24.06-21.24-14.45-68.08-62.09 94.15 25.51z"></path>
      <path fill="#acd2b4" stroke="#86f6da" stroke-width="2" stroke-opacity="0.5" stroke-linejoin="round" d="M333.75 366.02l-90.28-8.18-71.46-38.51 163.68 30.8-1.94 15.89z"></path>
      <path fill="#678a6f" stroke="#86f6da" stroke-width="2" stroke-opacity="0.5" stroke-linejoin="round" d="M273.4 379.98l-55.52-17.81 119.26 4.33 116.36 9.63 13.52 25.03-28.97-5.29-63.25-5.78-45.87-17.33-19.31 10.59-36.22-3.37z"></path>
      <path fill="#cce1d1" stroke="#86f6da" stroke-width="2" stroke-opacity="0.5" stroke-linejoin="round" d="M326.04 325.58l92.21 47.18-84.49-6.74-107.67-32.25-98.01-68.36 197.96 60.17z"></path>
      <path fill="#78a381" stroke="#86f6da" stroke-width="2" stroke-opacity="0.5" stroke-linejoin="round" d="M187.95 259.63l69.52 45.25 78.7 26 14.49-32.74L53.24 120.51l55.04 77.99 79.67 61.13z"></path>
      <path fill="#2f3a3c" stroke="#86f6da" stroke-width="2" stroke-opacity="0.5" stroke-linejoin="round" d="M127.11 171.06l223.55 127.08 118.77 29.37-92.22-100.13L40.69 53.12l86.42 117.94z"></path>
      <path fill="#cce1d1" stroke="#86f6da" stroke-width="2" stroke-opacity="0.5" stroke-linejoin="round" d="M460.26 325.58l9.17 1.93v1.92l54.56 13.96-47.31 6.74 37.66 15.89-37.66.96 59.38 23.59 35.73 19.25 1.93 8.19-56.49-19.74h-50.21l-6.76-10.11v-62.58z"></path>
      <path fill="#2f3a3c" stroke="#86f6da" stroke-width="2" stroke-opacity="0.5" stroke-linejoin="round" d="M584.83 440.15h-14.97l6.76-11.55-4.83-18.77 27.52-14.45v32.26l-14.48 12.51z"></path>
      <path fill="#cde3d2" stroke="#86f6da" stroke-width="2" stroke-opacity="0.5" stroke-linejoin="round" d="M289.82 557.61l-2.41 3.37 7.73 77.02-49.25-93.39 42-99.16 86.91-55.36 72.43 7.7v.48l-118.78 77.5-10.14-14.92-39.11 83.28 10.62 13.48z"></path>
      <path fill="#8fc19a" stroke="#86f6da" stroke-width="2" stroke-opacity="0.5" stroke-linejoin="round" d="M208.22 494.07l-36.21 42.84 12.55-46.69 37.66-51.51 106.71-65.95 45.86 17.33-166.57 103.98z"></path>
      <path fill="#78a381" stroke="#86f6da" stroke-width="2" stroke-opacity="0.5" stroke-linejoin="round" d="M328.45 592.75l14.97 37.07-64.22-85.69 39.11-83.28 10.14 14.92v116.98z"></path>
      <path fill="#2f3a3c" stroke="#86f6da" stroke-width="2" stroke-opacity="0.5" stroke-linejoin="round" d="M164.77 480.59l30.9-41.4-30.9 25.03v16.37z"></path>
      <path fill="#678a6f" stroke="#86f6da" stroke-width="2" stroke-opacity="0.5" stroke-linejoin="round" d="M201.95 602.86l-11.59-7.22v-39.96l6.28 14.92 5.31 32.26z"></path>
  </g>
</svg>
